# xmcd
#
# Track frame offsets:
#	182
#	4537
#	10850
#	21130
#	25660
#	36682
#	42275
#	52822
#	63500
#	71325
#	91487
#	105087
#	120997
#
# Disc length: 1814 seconds
#
# Revision: 4
# Processed by: cddbd v1.5.2PL0 Copyright (c) Steve Scherf et al.
# Submitted via: audiograbber 1.83.01
#
DISCID=9207140d
DTITLE=Tammy Wynette - Greatest Hits Live
DYEAR=1900
DGENRE=Country
TTITLE0=Trailer And Introduction (Live)
TTITLE1=Welcome To My World (Live)
TTITLE2=Another Chance (Live)
TTITLE3=Your Good Girl's Gonna Go Bad (Live)
TTITLE4=D.I.V.O.R.C.E. (Live)
TTITLE5=Singing My Song (Live)
TTITLE6=Womanhood (Live)
TTITLE7=Fairy Tales (Live)
TTITLE8=When The Green Grass Grows Over Me (Live)
TTITLE9=Medley (Live) (Amazing Graze - I'll Fly Away - Will The Circle  Be Unbr
TTITLE9=oken - I Saw The Light)
TTITLE10=Stand By Your Man (Live)
TTITLE11=Till I Can Make It On Your Own (Live)
TTITLE12=Crying In The Rain (Live)
EXTD=Success Records 2197CD\n\nMARO\n
EXTT0=
EXTT1=
EXTT2=
EXTT3=
EXTT4=
EXTT5=
EXTT6=
EXTT7=
EXTT8=
EXTT9=
EXTT10=
EXTT11=
EXTT12=
PLAYORDER=
